<svg width="552" height="552" viewBox="0 0 552 552" fill="none" xmlns="http://www.w3.org/2000/svg">
<path d="M417.5 157C421.09 157 424 159.91 424 163.5C424 167.09 421.09 170 417.5 170H356.5C352.91 170 350 167.09 350 163.5C350 159.91 352.91 157 356.5 157H417.5" fill="#29B6F6"/>
<path fill-rule="evenodd" clip-rule="evenodd" d="M276 19.5C417.661 19.5 532.5 134.339 532.5 276C532.5 417.661 417.661 532.5 276 532.5C134.339 532.5 19.5 417.661 19.5 276C19.5 235.03 29.1053 196.302 46.1875 161.948C46.4253 160.978 46.8801 160.092 47.499 159.348C89.9658 76.3291 176.347 19.5 276 19.5ZM356 382C356 388.999 350.232 394.706 343 395.002V395H63.5098C105.207 469.296 184.74 519.5 276 519.5C367.26 519.5 446.793 469.296 488.49 395H431V395.002C423.768 394.706 418 388.999 418 382V222H356V382ZM56.7217 170C41.2025 202.045 32.5 238.006 32.5 276C32.5 313.994 41.2025 349.955 56.7217 382H121V282.5C121 278.91 123.91 276 127.5 276C131.09 276 134 278.91 134 282.5V382H196.5V170H56.7217ZM276 32.5C184.74 32.5 105.207 82.704 63.5098 157H269.5C273.09 157 276 159.91 276 163.5C276 167.09 273.09 170 269.5 170H209.5V270H269.5C273.09 270 276 272.91 276 276.5C276 280.09 273.09 283 269.5 283H209.5V382H343V222H282.5C278.91 222 276 219.09 276 215.5C276 211.91 278.91 209 282.5 209H510.165C481.064 107.099 387.244 32.5 276 32.5ZM513.474 221.927C513.156 221.974 512.831 222 512.5 222H431V382H495.278C510.798 349.955 519.5 313.994 519.5 276C519.5 257.416 517.417 239.318 513.474 221.927Z" fill="#29B6F6"/>
<path fill-rule="evenodd" clip-rule="evenodd" d="M276 0C428.431 0 552 123.569 552 276C552 428.431 428.431 552 276 552C123.569 552 0 428.431 0 276C0 123.569 123.569 0 276 0ZM276 2C124.674 2 2 124.674 2 276C2 427.326 124.674 550 276 550C427.326 550 550 427.326 550 276C550 124.674 427.326 2 276 2Z" fill="#29B6F6"/>
</svg>
